<?xml version="1.0" standalone="no"?><!DOCTYPE svg PUBLIC "-//W3C//DTD SVG 1.1//EN" "http://www.w3.org/Graphics/SVG/1.1/DTD/svg11.dtd"><svg t="1672390235869" class="icon" viewBox="0 0 1024 1024" version="1.1" xmlns="http://www.w3.org/2000/svg" p-id="3837" xmlns:xlink="http://www.w3.org/1999/xlink" width="200" height="200"><path d="M863.920611 448.106258H863.98461A15.999715 15.999715 0 0 0 895.98404 448.01026l-0.063999-0.255996a319.866302 319.866302 0 0 0-319.130315-319.546308C576.56573 128.143957 576.309734 128.01596 575.98974 128.01596a15.999715 15.999715 0 0 0-0.063999 31.99943v0.127997c158.813171-0.031999 287.99487 129.181699 287.99487 287.962871zM291.866801 28.113739a95.870292 95.870292 0 0 0-104.574137-20.799629A95.966291 95.966291 0 0 0 127.99772 96.01653l-0.031999 440.216158-99.838222 99.902221a95.934291 95.934291 0 0 0 0 135.741582l223.99601 223.99601C270.875175 1014.624167 295.418738 1024 319.9943 1024s49.119125-9.375833 67.870791-28.127499L487.735312 896.00228h440.184159c38.879307 0 73.886684-23.359584 88.670421-59.262944a95.934291 95.934291 0 0 0-20.79963-104.638137L291.866801 28.113739z m150.621317 822.641347l-99.870221 99.870221a31.99943 31.99943 0 0 1-45.247194 0l-223.99601-223.99601a31.935431 31.935431 0 0 1 0-45.247194l99.838222-99.870221c0.287995-0.319994 0.383993-0.671988 0.671988-0.991983l269.595198 269.627198c-0.287995 0.223996-0.703987 0.287995-0.991983 0.607989zM487.735312 832.00342c-4.959912 0-9.56783 1.759969-14.303745 2.81595L189.116631 550.504434c1.087981-4.735916 2.847949-9.343834 2.84795-14.271746L191.99658 150.767554 873.168447 832.00342H487.735312z m469.751633-19.743648a31.839433 31.839433 0 0 1-29.567474 19.743648h-9.50383L191.99658 105.52036V96.01653a31.871432 31.871432 0 0 1 31.967431-31.99943c8.575847 0 16.607704 3.327941 22.623597 9.343833l703.95546 704.01946a31.871432 31.871432 0 0 1 6.943877 34.879379z" p-id="3838"></path><path d="M575.925741 64.0171v0.127997c211.740228 0 383.99316 172.252932 383.99316 383.993161H959.9829A31.99943 31.99943 0 0 0 1023.98176 448.01026l-0.063999-0.255996C1023.725765 200.782664 823.729327 0.626229 576.789726 0.178237 576.56573 0.146237 576.309734 0.01824 575.98974 0.01824a31.99943 31.99943 0 0 0-0.063999 63.99886z" p-id="3839"></path></svg>