<?xml version="1.0" standalone="no"?><!DOCTYPE svg PUBLIC "-//W3C//DTD SVG 1.1//EN" "http://www.w3.org/Graphics/SVG/1.1/DTD/svg11.dtd"><svg t="1646877477012" class="icon" viewBox="0 0 1024 1024" version="1.1" xmlns="http://www.w3.org/2000/svg" p-id="7139" xmlns:xlink="http://www.w3.org/1999/xlink" width="48" height="48"><defs><style type="text/css"></style></defs><path d="M834.9 613.5c-17.4-40.9-42.3-77.7-73.9-109.3-31.6-31.6-68.4-56.4-109.3-73.9-42.4-18-87.4-27.2-133.6-27.2-46.2 0-91.2 9.2-133.6 27.2-40.9 17.4-77.7 42.3-109.3 73.9-31.6 31.6-56.4 68.4-73.9 109.3-18 42.4-27.2 87.4-27.2 133.6v66.6c0 13.3 10.7 24 24 24H838c13.3 0 24-10.7 24-24v-66.6c0.1-46.2-9.1-91.2-27.1-133.6z m-232.8 3.6l-32 61.2c-4.1-2.9-8.3-5.4-12.8-7.6l5-70.2c14.9 3.6 28.2 9.1 39.8 16.6z m48.6 63.4l7.5 25.4c0.9 3.9 1.6 7.7 2.2 11.3l-52.5 17.9c-1.3-5.9-3.1-11.6-5.4-17l46.5-42c0.5 1.5 1 2.9 1.7 4.4z m-40.9 69.8l52.5-17.9c1.1 11.4 0.9 18.8 0.9 19-0.2 3.2 0.4 6.3 1.4 9.2h-55.5c0.4-1.9 0.7-3.9 0.7-5.9 0.2-1.5 0.1-2.9 0-4.4z m-14.6-45.9c-3.8-5.9-8.3-11.3-13.2-16.3l32.3-61.9c2.7 2.3 5.3 4.8 7.9 7.4 8.3 8.6 14.8 18.2 20.1 28.1l-47.1 42.7zM542.7 665a95.6 95.6 0 0 0-16.1-3.2l0.2-65.7c7.1 0.2 14 0.8 20.7 1.7l-4.8 67.2z m-31-3.6c-2.9 0.2-5.8 0.5-8.6 0.8l-24.3-61.5c10.4-2.6 21.5-4.1 33.1-4.6l-0.2 65.3z m-94.2-28l42.6 46.9c-6.7 5.1-12.7 11-17.8 17.6l-50.7-33.5c7.8-11.9 16.3-22.2 25.9-31z m-33.4 44l50.1 33.2c-1.2 2.2-2.2 4.4-3.2 6.7l-59.5-11.6c3.3-9 7.4-18.6 12.6-28.3z m-24.9 77.2c0-0.2 1.5-14.6 7.4-34.6l59.3 11.5c-1.9 7.4-2.9 15.2-2.9 23.2v0.3h-63.9c0.1-0.1 0.1-0.2 0.1-0.4zM473 672.1l-43.8-48.3c8.7-6.4 18.1-11.7 28.1-15.9l7.5-1.6 23.5 59.4c-5.4 1.7-10.5 3.8-15.3 6.4z m341 117.6H526.4l0.2-79.3c20.2 4.6 35.4 22.7 35.4 44.3 0 13.3 10.7 24 24 24 6.2 0 11.9-2.4 16.2-6.3l78.8 3.1c1.7 0.5 3.5 0.8 5.3 0.8 13.3 0.5 24.4-9.8 25-23 0.2-3.8 3-92.4-54-152.4-32-33.8-75.9-51.5-130.3-52.8l0.2-73.9c0-4.1-3.4-7.5-7.5-7.5s-7.5 3.4-7.5 7.5l-0.2 74c-92.1 3.2-141.7 56.4-167.3 101.4-27.9 49.2-33 98.4-33.2 100.5-1.3 13.2 8.4 24.9 21.6 26.2 0.8 0.1 1.6 0.1 2.3 0.1 6.2 0 11.9-2.3 16.1-6.3h77.1c4.4 5.3 11 8.7 18.5 8.7 13.3 0 24-10.7 24-24 0-23.3 17.7-42.6 40.4-45.1l-0.2 80.1h-289v-42.6c0-163.1 132.7-295.9 295.9-295.9C681.3 451.3 814 584 814 747.1v42.6z" fill="#DAE9FF" p-id="7140"></path><path d="M469.8 486.6c-87.7 5.3-156 53.4-197.2 138.8-30.1 62.3-35.1 122.5-35.3 125-1.1 13.2 8.9 24.8 22.1 25.8 0.6 0.1 1.3 0.1 1.9 0.1 12.4 0 23-9.5 23.9-22.1 0.1-0.5 4.4-53.6 30.6-107.8 33.8-69.9 86.6-107.5 156.9-111.8 13.2-0.8 23.3-12.2 22.5-25.4-0.7-13.3-12.1-23.4-25.4-22.6z m208.3 42.7c-52.4-36-105.7-42.3-108-42.6-13.2-1.5-25.1 8-26.6 21.2s8 25.1 21.2 26.6c0.5 0.1 43.6 5.2 86.2 34.4 56.4 38.8 83.5 100.2 80.3 182.6-0.5 13.3 9.8 24.4 23 24.9h1c12.8 0 23.5-10.1 24-23.1 4.8-124.5-52.3-190.5-101.1-224z" fill="#DAE9FF" p-id="7141"></path><path d="M822.6 589c-17.4-40.9-42.3-77.7-73.9-109.3-31.6-31.6-68.4-56.4-109.3-73.9-42.4-18-87.4-27.2-133.6-27.2-46.2 0-91.2 9.2-133.6 27.2-40.9 17.4-77.7 42.3-109.3 73.9-31.6 31.6-56.4 68.4-73.9 109.3-18 42.4-27.2 87.4-27.2 133.6v66.6c0 13.3 10.7 24 24 24h639.7c13.3 0 24-10.7 24-24v-66.6c0.3-46.3-8.9-91.2-26.9-133.6z m-232.8 3.6l-32 61.2c-4.1-2.9-8.3-5.4-12.8-7.6l5-70.2c14.9 3.5 28.2 9 39.8 16.6z m48.6 63.3l7.5 25.4c0.9 3.9 1.6 7.7 2.2 11.3l-52.5 17.9c-1.3-5.9-3.1-11.6-5.4-17l46.5-42c0.5 1.5 1.1 2.9 1.7 4.4z m-40.9 69.8l52.5-17.9c1.1 11.4 0.9 18.8 0.9 19-0.2 3.2 0.4 6.3 1.4 9.2h-55.5c0.4-1.9 0.7-3.9 0.7-5.9 0.2-1.5 0.1-2.9 0-4.4z m-14.6-45.8c-3.8-5.9-8.3-11.3-13.2-16.3l32.3-61.9c2.7 2.3 5.3 4.8 7.9 7.4 8.3 8.6 14.8 18.2 20.1 28.1l-47.1 42.7z m-52.5-39.4a95.6 95.6 0 0 0-16.1-3.2l0.2-65.7c7.1 0.2 14 0.8 20.7 1.7l-4.8 67.2z m-31-3.6c-2.9 0.2-5.8 0.5-8.6 0.8l-24.3-61.5c10.4-2.6 21.5-4.1 33.1-4.6l-0.2 65.3z m-94.1-28.1l42.6 46.9c-6.7 5.1-12.7 11-17.8 17.6l-50.7-33.5c7.7-11.9 16.2-22.2 25.9-31z m-33.5 44l50.1 33.2c-1.2 2.2-2.2 4.4-3.2 6.7l-59.5-11.6c3.3-9 7.4-18.6 12.6-28.3z m-24.9 77.3c0-0.2 1.5-14.6 7.4-34.6l59.3 11.5c-1.9 7.4-2.9 15.2-2.9 23.2v0.3h-63.9c0.1-0.1 0.1-0.3 0.1-0.4z m113.8-82.6l-43.8-48.3c8.7-6.4 18.1-11.7 28.1-15.9l7.5-1.6 23.5 59.4c-5.4 1.7-10.5 3.9-15.3 6.4z m341.1 117.6H514.1l0.2-79.3c20.2 4.6 35.4 22.7 35.4 44.3 0 13.3 10.7 24 24 24 6.2 0 11.9-2.4 16.2-6.3l78.8 3.1c1.7 0.5 3.5 0.8 5.3 0.8 13.3 0.5 24.4-9.8 25-23 0.2-3.8 3-92.4-54-152.4-32-33.8-75.9-51.5-130.3-52.8l0.2-73.9c0-4.1-3.4-7.5-7.5-7.5s-7.5 3.4-7.5 7.5l-0.2 74C407.5 526.8 357.9 580 332.3 625c-27.9 49.2-33 98.4-33.2 100.5-1.3 13.2 8.4 24.9 21.6 26.2 0.8 0.1 1.6 0.1 2.3 0.1 6.2 0 11.9-2.3 16.1-6.3h77.1c4.4 5.3 11 8.7 18.5 8.7 13.3 0 24-10.7 24-24 0-23.3 17.7-42.6 40.4-45.1l-0.2 80.1H210v-42.6c0-163.1 132.7-295.9 295.9-295.9s295.9 132.7 295.9 295.9v42.5z" fill="#3889FF" p-id="7142"></path><path d="M457.6 462.1c-87.7 5.3-156 53.4-197.2 138.8-30.1 62.3-35.1 122.5-35.3 125-1.1 13.2 8.9 24.8 22.1 25.8 0.6 0.1 1.3 0.1 1.9 0.1 12.4 0 23-9.5 23.9-22.1 0.1-0.5 4.4-53.6 30.6-107.8 33.8-69.9 86.6-107.5 156.9-111.8 13.2-0.8 23.3-12.2 22.5-25.4-0.7-13.3-12.2-23.5-25.4-22.6z m208.2 42.6c-52.4-36-105.7-42.3-108-42.6-13.2-1.5-25.1 8-26.6 21.2s8 25.1 21.2 26.6c0.5 0.1 43.6 5.2 86.2 34.4 56.4 38.8 83.5 100.2 80.3 182.6-0.5 13.3 9.8 24.4 23 24.9h1c12.8 0 23.5-10.1 24-23.1 4.8-124.4-52.3-190.5-101.1-224z" fill="#3889FF" p-id="7143"></path><path d="M606.6 644.9l-133 58.3c-11.6 6.7-22.2-2.7-18.9-14.9l9.9-36.6C424.9 641 284.5 583.5 309 359.3c0.8-3 4.7-5.3 6.9-1.4C351.4 491 433.8 513.3 497.3 530.4l9.9-36.6c2.5-9.1 16.3-11.9 23.8-3.4l85.6 117.2c9.6 13.2 4.6 31.5-10 37.3zM572 229l-9.9 36.6c39.7 10.7 180.1 68.2 155.6 292.4-0.8 3-4.7 5.3-6.9 1.4C675.4 426.2 593 404 529.5 386.8l-9 33.5c-2.5 9.1-16.3 11.9-23.8 3.4l-85.6-117.2c-9.7-12.4-4.8-30.7 9.9-36.6l133-58.3c10.6-3.6 21.3 5.2 18 17.4z" fill="#FFD6C2" p-id="7144"></path><path d="M594.3 620.4l-133 58.3c-11.6 6.7-22.2-2.7-18.9-14.9l9.9-36.6c-39.7-10.7-180.1-68.2-155.6-292.4 0.8-3 4.7-5.3 6.9-1.4C339 466.5 421.5 488.8 485 505.9l9.9-36.6c2.5-9.1 16.3-11.9 23.8-3.4l85.6 117.2c9.6 13.2 4.7 31.4-10 37.3zM559.8 204.4l-9.9 36.6c39.7 10.7 180.1 68.2 155.6 292.4-0.8 3-4.7 5.3-6.9 1.4-35.5-133.1-117.9-155.4-181.4-172.5l-9 33.5c-2.5 9.1-16.3 11.9-23.8 3.4L398.8 282c-9.7-12.4-4.8-30.7 9.9-36.6l133-58.3c10.6-3.6 21.4 5.2 18.1 17.3z" fill="#FB560A" p-id="7145"></path></svg>